<?xml version="1.0" encoding="utf-8"?>
<!-- Generator: Adobe Illustrator 18.1.1, SVG Export Plug-In . SVG Version: 6.00 Build 0)  -->
<svg version="1.1" id="Layer_1" xmlns="http://www.w3.org/2000/svg" xmlns:xlink="http://www.w3.org/1999/xlink" x="0px" y="0px"
	 viewBox="-185 327.8 240 138.2" enable-background="new -185 327.8 240 138.2" xml:space="preserve">
<g id="Layer_2">
</g>
<g id="Layer_3">
	<g>
		<g>
			<g enable-background="new    ">
				<path fill="#29ABE2" d="M-151.1,349.1c0,12.2,24.4,17,31.9,24.4c11.8,11.7,4,28.1-9.9,33.5c-13.7,5.3-38.7,3.1-41.8-14.8
					c-0.8-4.7,0.4-11.6,5.5-13.5c8.8-3.3,4.3,7.3,5.1,11.5c2.7,14.4,29.8,12.7,35.1,0.9c6.3-13.9-17.4-20.4-25.8-25.9
					c-11.7-7.6-15.3-22.3-1.6-30.6c11.5-6.9,32-6.6,39.4,6.3c3.7,6.4,1.9,16.2-4.3,20.6c-2.4,1.7-5.5,3.3-7.2,0.3
					c-1.7-2.9,1.8-6.4,2.8-8.9C-115.1,335.6-151.1,335.2-151.1,349.1z"/>
			</g>
			<g enable-background="new    ">
				<path fill="#29ABE2" d="M-69.6,394.8c-8,4.7-20.6,14.8-28.5,5.1c-7-8.6-5.7-24.5-4.3-34.6c-3-0.4-5.9-1-8.9-1.3
					c-2.4-0.3-3.5-2.7-1.9-4.5c2.2-2.5,9-0.3,11.9-0.9c1.4-6.8,8.2-35.7,20.2-28.6c10.6,6.3,1.6,23.1-2.7,29.9
					c3.2,0.4,7.7-0.6,10.8,0.4c2.6,0.9,5.7,6.3,0.7,6.3h-16.1c-1.5,2.1-3.1,4.2-4.7,6.2c-0.1,1.7-0.2,3.4-0.3,5.1
					c-0.2,6.1-2.2,17.4,7,16.7c5.8-0.4,13.1-6.4,16.8-10.5V394.8z M-83,341.7c0-3.9-2.3-3.3-4.4-1.3c-3.7,3.3-4.7,14-5.7,18.6
					c0.9,0.1,1.7,0.2,2.6,0.3C-87.7,354.3-83,347.6-83,341.7z"/>
			</g>
			<g enable-background="new    ">
				<path fill="#29ABE2" d="M-57.1,404.2c-20.5,0-20.1-32.6-3.9-39.2c6.4-2.6,14.6,0,16.1,7.2c2.1,9.7-8.8,17.1-16.8,19.3
					c5.4,9.6,19.9-1.4,25-6.4l5.4,5.6c-2.5,2.5-5.1,4.8-7.9,6.8C-44.4,401.2-50.5,404.2-57.1,404.2z M-62.7,384.5
					c4.1,0,12.7-5.6,9.8-10.6C-57.6,365.6-62.7,380.9-62.7,384.5C-61.7,384.5-62.7,383.9-62.7,384.5z"/>
				<path fill="#29ABE2" d="M-36.3,390.6c-0.1-3.5-3.1-25.1,1.5-25.8l5-0.8c1.8-0.4,3.7,0.6,3.8,2.7l-1.6,26.6l0.6,0l11-26.3
					c0.8-3.7,7.4-3.8,9.3-1.4c2.8,3.4-1.9,9.6-3.3,12.8c-3.3,8.5,3,12.7,10.7,8.3c1.1-0.6,2.3-1.4,3.5-2.2v9.9
					c-5.9,3.8-20.8,7.2-21.1-4.4c-2.1,4.3-6.6,14.6-12.4,14.8c-6.6,0.3-6.6-8.2-6.9-12.7L-36.3,390.6z"/>
				<path fill="#29ABE2" d="M18,404.2c-20.5,0-20.1-32.6-3.9-39.2c6.4-2.6,14.6,0,16.1,7.2c2.1,9.7-8.8,17.1-16.8,19.3
					c5.4,9.6,19.9-1.4,25-6.4l5.4,5.6c-2.5,2.5-5.1,4.8-7.9,6.8C30.7,401.2,24.6,404.2,18,404.2z M12.4,384.5
					c4.1,0,12.7-5.6,9.8-10.6C17.5,365.6,12.4,380.9,12.4,384.5C13.4,384.5,12.4,383.9,12.4,384.5z"/>
			</g>
		</g>
		<g>
			<polygon fill="#FBB03B" points="-94,403.8 -84,403.8 -84,454.8 -72,454.8 -72,464.8 -94,464.8 			"/>
			<polygon fill="#FBB03B" points="-123,403.8 -102,403.8 -102,414.8 -112,414.8 -112.1,426.8 -102.3,426.8 -102.1,435.8 
				-112,435.8 -112.1,454.8 -102.3,454.8 -102.1,464.8 -123,464.8 			"/>
			<polygon fill="#FBB03B" points="-34,403.8 -14,403.8 -14,414.8 -23.8,414.8 -23.9,426.8 -14.1,426.8 -13.9,435.8 -23.8,435.8 
				-23.9,454.8 -14.1,454.8 -13.9,464.8 -34,464.8 			"/>
			<path fill="#FBB03B" d="M38.6,428.8l0.5,9.5l1.9,0.3c0,0,0,14.4,0,15.7s-1.7,2-3,2s-2-2-2-2s0-38.4,0-39.6c0-1.2,1.2-2,2.8-2
				s2.2,2.2,2.2,2.2v6.2l10.2-3.6c0-8.5-2.4-9.4-4.1-11c-1.7-1.7-5.3-2.5-8.4-2.5c-3,0-6.2,0-8.6,2.4c-2.4,2.4-3.2,6.9-3.2,6.9
				s0,40.7,0,42.5s1.3,9,12.2,9s12.2-8.5,12.2-8.5l-0.5-27.1L38.6,428.8z"/>
			<path fill="#FBB03B" d="M-170.6,421.3l9.6-2.8V412c0,0,0.7-8.2-7-8.2c-4.7,0-9.4,0-9.4,0s-7.6,0.6-7.6,7.7c0,4,0,10.9,0,14.6
				c0,2.6,2.8,4.1,5.4,6.6c2.6,2.5,4.5,3,6.2,4.5c1.7,1.4,3,2.1,3,6.1s-0.1,10.8-0.1,10.8s0.3,2-1.9,2c-2.2,0-2.9-1.2-2.9-2.9
				c0-1.8-0.1-10.5-0.1-10.5l-9.6,2.6v10.8c0,0,0.6,2.7,2.5,4.9c2,2.2,3.4,3.4,5.1,3.6c1.7,0.3,6.1,0,8.1,0s4.4-1.4,5.9-3.1
				s2.6-3.3,2.8-4.4c0.6-3.1,0-16.5,0-16.5s0.3-6-3.5-7.9c-5.3-2.7-9.1-5.3-9.1-5.3s-2.8-1.5-2.8-6.3c0-4.8,0-6,0-6s1.3-2.2,2.9-2.2
				c1.7,0,2.2,1.6,2.2,1.6L-170.6,421.3z"/>
			<path fill="#FBB03B" d="M-129.5,416.8v-0.5c0-7-5.7-12.9-12.7-12.9s-12.8,5.5-12.8,12.5c0,0.5,0,1,0,1.5v34c0,0.5,0,1,0,1.5
				c0,7,5.8,13,12.8,13c6.9,0,12.6-5.2,12.8-12.2h0.4v-36.9H-129.5z M-140,454.2c0,0-1.3,2.1-2.5,2.1s-2.5-2.1-2.5-2.1v-39.4
				c0,0,0-2.1,2.3-2.1s2.7,2.1,2.7,2.1V454.2z"/>
			<path fill="#FBB03B" d="M13.4,439.3c0,0,5.3-3.5,5.3-8.2c0-4.7,0.6-16.9,0.6-16.9s-0.8-4.3-2.7-6.3c-2-2-4.1-4.2-7-4.2
				S-6,403.8-6,403.8v60.5l9-0.2v-21.3l8.5,21.9h9.2L13.4,439.3z M10,428.3c0,0-0.3,2.5-1.9,2.5s-4.1,0-4.1,0v-17c0,0,2.1,0,3.8,0
				s2.2,0,2.2,2.2C10,418.2,10,428.3,10,428.3z"/>
			<path fill="#FBB03B" d="M-45.4,433.2c0,0,5.4-1.3,5.4-6.7s0-13.7,0-13.7s-1.9-8-8.3-8c-6.4,0-17.7,0-17.7,0v60.7l17.7-0.2
				c0,0,8.3-3.6,8.3-8.8s0-16.4,0-16.4S-39.6,433.2-45.4,433.2z M-50,453.5c0,0-0.4,2.3-2,2.3s-4,0-4,0v-18c0,0,2,0,3.7,0
				s2.3,0.3,2.3,2.6C-50,442.7-50,453.5-50,453.5z M-50,426.1c0,0-0.4,2.7-2,2.7s-4,0-4,0v-15c0,0,2,0,3.7,0s2.3,0,2.3,1.8
				C-50,417.5-50,426.1-50,426.1z"/>
		</g>
	</g>
</g>
</svg>
